<svg width="30" height="27" viewBox="0 0 30 27" fill="none" xmlns="http://www.w3.org/2000/svg">
<path d="M16.1408 0.585783C15.3597 -0.195267 14.0934 -0.195267 13.3123 0.585783L0.584427 13.3137C-0.196622 14.0948 -0.196622 15.3611 0.584427 16.1421C1.36548 16.9232 2.63181 16.9232 3.41285 16.1421L14.7266 4.82842L26.0403 16.1421C26.8213 16.9232 28.0876 16.9232 28.8687 16.1421C29.6497 15.3611 29.6497 14.0948 28.8687 13.3137L16.1408 0.585783ZM14.7266 26.129H16.7266L16.7266 14.5645H14.7266H12.7266L12.7266 26.129H14.7266ZM14.7266 14.5645H16.7266V2H14.7266H12.7266L12.7266 14.5645H14.7266Z" fill="black"/>
</svg>
