<svg width="34" height="24" viewBox="0 0 34 24" fill="none" xmlns="http://www.w3.org/2000/svg">
<path d="M16.6667 0C22.7983 0 30.27 4.02833 32.8833 9.835C33.1267 10.3817 33.3333 11.0183 33.3333 11.6667C33.3333 12.3133 33.1283 12.9517 32.8833 13.4983C30.2683 19.305 22.7967 23.3333 16.6667 23.3333C10.5367 23.3333 3.06333 19.305 0.45 13.4983C0.206667 12.95 0 12.315 0 11.6667C0 11.02 0.205 10.3817 0.45 9.835C3.065 4.02833 10.5367 0 16.6667 0ZM16.6667 5C14.8986 5 13.2029 5.70238 11.9526 6.95262C10.7024 8.20286 10 9.89856 10 11.6667C10 13.4348 10.7024 15.1305 11.9526 16.3807C13.2029 17.631 14.8986 18.3333 16.6667 18.3333C18.4348 18.3333 20.1305 17.631 21.3807 16.3807C22.631 15.1305 23.3333 13.4348 23.3333 11.6667C23.3333 9.89856 22.631 8.20286 21.3807 6.95262C20.1305 5.70238 18.4348 5 16.6667 5ZM16.6667 8.33333C17.5507 8.33333 18.3986 8.68452 19.0237 9.30964C19.6488 9.93477 20 10.7826 20 11.6667C20 12.5507 19.6488 13.3986 19.0237 14.0237C18.3986 14.6488 17.5507 15 16.6667 15C15.7826 15 14.9348 14.6488 14.3096 14.0237C13.6845 13.3986 13.3333 12.5507 13.3333 11.6667C13.3333 10.7826 13.6845 9.93477 14.3096 9.30964C14.9348 8.68452 15.7826 8.33333 16.6667 8.33333Z" fill="white"/>
</svg>
