<svg width="67" height="43" viewBox="0 0 67 43" fill="none" xmlns="http://www.w3.org/2000/svg">
<path d="M25.7734 21.3957H26.8186L26.5423 20.6939H25.8337L25.7734 21.3957Z" fill="white"/>
<path d="M43.2652 11.8549C43.0441 11.6565 42.8129 11.4683 42.5767 11.2903H41.0541L41.0391 11.3259C41.2652 11.4938 41.4863 11.6718 41.7024 11.8549H43.2652Z" fill="white"/>
<path d="M39.3801 15.5471L39.2344 15.9591C40.169 15.8472 41.0836 15.715 41.968 15.5471H39.3801Z" fill="white"/>
<path d="M24.0058 27.9106C25.5988 27.5393 27.2872 27.2596 29.0359 27.0765L28.7646 26.3849C26.9706 26.5883 25.2521 26.8934 23.639 27.2952C22.7596 25.6983 22.222 23.8827 22.1215 21.9399H22.1164L20.9154 17.7187C20.634 18.6698 20.4582 19.6666 20.418 20.699H10.8151C11.0714 17.5611 13.5336 14.7283 17.4029 12.633C18.1416 13.0297 18.9406 13.4009 19.7848 13.7417L19.5938 13.0653C19.021 12.8415 18.4682 12.6076 17.9356 12.3584C18.3476 12.1499 18.7798 11.9464 19.222 11.7532C19.5838 11.5955 19.9557 11.4378 20.3376 11.2904C22.9506 10.2783 25.9807 9.55103 29.262 9.18995C27.8601 9.67818 26.5686 10.3851 25.433 11.2548H26.9354L26.9857 11.3768C27.0309 11.3463 27.0711 11.3107 27.1163 11.2802V11.27H27.1314C28.9706 9.92229 31.1967 9.0984 33.6087 9.01195V11.2548L34.3022 11.2649V9.00686C35.5333 9.03229 36.7192 9.25098 37.8297 9.63241L38.2318 8.65086C37.3725 8.57457 36.4931 8.51863 35.6037 8.48303C35.071 8.422 34.5333 8.3864 33.9806 8.3864C33.4278 8.3864 32.9303 8.41691 32.4178 8.47286C19.4331 8.86954 9.13672 14.4232 9.13672 21.2177C9.13672 28.0123 19.0612 33.3676 31.7143 33.9372L31.4429 33.2455C28.3274 32.5386 25.6742 30.5806 23.9958 27.9055L24.0058 27.9106ZM10.8 21.3957H20.418C20.4582 23.6792 21.1315 25.8203 22.2772 27.6614C20.3828 28.2208 18.6642 28.9125 17.1617 29.7109C13.2824 27.5393 10.8754 24.615 10.8 21.3957ZM17.7547 30.0313C19.2371 29.3397 20.8853 28.7396 22.6642 28.2513C24.3274 30.6162 26.7998 32.4267 29.7093 33.3371C25.1013 32.8844 20.9707 31.7046 17.7547 30.0313Z" fill="white"/>
<path d="M44.6631 9.71887L44.4471 10.2681C46.4822 10.8174 48.3465 11.5243 49.9796 12.3584C48.5525 13.0246 46.9696 13.5993 45.2661 14.0723C44.8189 13.4416 44.3063 12.8466 43.7486 12.3024L43.2712 13.4823C43.5124 13.7824 43.7385 14.0926 43.9496 14.4181C43.5677 14.5096 43.1807 14.5961 42.7888 14.6724L42.4772 15.4454C43.1054 15.3183 43.7234 15.181 44.3214 15.0284C45.2862 16.7016 45.8742 18.6342 45.9646 20.6939H40.9948V21.1923L40.9195 21.3907H45.9747C45.9546 23.5877 45.3717 25.6424 44.3666 27.4224C42.6883 26.9748 40.8843 26.6341 38.9949 26.4103L38.7336 27.0867C40.5828 27.285 42.3516 27.5902 44.0199 28.0021C42.2913 30.7078 39.5476 32.6607 36.3467 33.3066L36.1055 33.9372C48.7485 33.3625 58.6579 27.8903 58.6579 21.2228C58.6579 16.1625 52.9444 11.7837 44.6581 9.72396L44.6631 9.71887ZM45.6531 14.6571C47.4721 14.113 49.1254 13.4467 50.5776 12.6737C54.3966 14.769 56.8237 17.5814 57.08 20.6939H47.5375C47.447 18.4918 46.7736 16.4371 45.648 14.652L45.6531 14.6571ZM38.2813 33.3269C41.1456 32.4217 43.5878 30.6467 45.246 28.3276C46.9746 28.8159 48.5776 29.4109 50.0198 30.0975C46.844 31.7249 42.7938 32.8743 38.2813 33.3269ZM50.5374 29.8228C49.0952 29.0345 47.437 28.348 45.6129 27.7835C46.8088 25.9119 47.5073 23.7301 47.5475 21.3958H57.1001C57.0197 24.671 54.5373 27.6411 50.5374 29.8228Z" fill="white"/>
<path d="M34.2977 23.9335H33.6042V26.1001C33.3279 26.1001 33.0565 26.1102 32.7852 26.1153L33.0565 26.8324C33.2374 26.8324 33.4183 26.8222 33.6042 26.8222V28.2615L33.961 29.1973L34.2927 28.3327V26.8222C34.4886 26.8222 34.6796 26.8324 34.8706 26.8375L35.1469 26.1255C34.8655 26.1153 34.5791 26.1052 34.2927 26.1001V23.9285L34.2977 23.9335Z" fill="white"/>
<path d="M27.1106 11.2755C27.1106 11.2755 27.1207 11.2702 27.1258 11.2649H27.1055V11.2755H27.1106Z" fill="white"/>
<path d="M39.1772 8.422L39.0515 8.72714L38.8556 9.2052L38.8455 9.23063L38.5691 9.90195L36.2777 15.4759L35.9762 16.2134L34.3029 20.2718L34.0918 20.7855H32.5542L32.5893 20.6888L33.6145 17.9323L34.5089 15.5268L35.7953 12.0685L34.3079 12.0481L33.6145 12.038H33.4989L32.2376 15.4963L32.1723 15.6743H31.8959L31.8255 15.4759L30.5793 12.0532H28.2527L29.4487 15.3081L29.72 16.0506L30.8959 19.2496L30.308 20.6888L30.2929 20.7295H29.8306L29.8155 20.6888L27.906 15.8268L27.6145 15.0894L26.4186 12.0431H24.2176L24.1824 12.3482L23.8809 15.0487L23.7955 15.8167L23.5241 15.7963L23.4689 15.6031L22.9412 13.7671L22.4588 12.0888L20.1523 12.0787L20.5292 13.3959L20.7252 14.0875L21.3935 16.4422L22.2528 19.4632L22.6046 20.699L22.7302 21.1465H25.0216L25.0568 20.699L25.4286 16.2795H25.6799L27.4085 20.699L27.6799 21.4008L29.5944 26.2984L29.8658 26.9951L32.3783 33.4235L32.5944 33.9779L33.9411 37.4311L35.2677 33.9779L35.4637 33.4642L37.936 27.0155L38.1973 26.3289L40.0867 21.4059L40.2224 21.055V20.7702L36.3883 20.8007L36.4235 20.7041L37.1119 18.8936L40.3782 18.9241L41.1972 16.7931H38.1169L38.3782 16.0608L38.6445 15.3081L38.8405 14.7538H41.9209L42.7048 12.811L42.7701 12.6533H39.6596L40.3882 10.8632L40.539 10.4868H43.5238L43.6897 10.0647L43.9007 9.53069L44.3379 8.41691H39.1872L39.1772 8.422ZM35.7099 26.8629L34.2979 30.5297L34.0868 31.0739H33.8356L33.6044 30.4738L32.2225 26.8528L31.9512 26.1407L30.8055 23.1351H37.1521L35.9863 26.1611L35.7149 26.868L35.7099 26.8629Z" fill="#E10819"/>
<path d="M1.97484 16.0608C1.36681 15.5878 1.01506 14.83 1.47234 14.0824C1.87434 13.4213 2.76378 13.2382 3.59794 13.7569C4.49742 14.3164 4.73862 15.1606 4.32154 15.8523C3.87934 16.5795 2.9698 16.6965 2.18087 16.2134L1.90953 16.6609L2.67836 17.139C3.04016 17.3627 3.08538 17.3475 3.28639 17.0779L3.43212 17.1695L2.71855 18.3443L2.57282 18.2527C2.72357 17.9425 2.71855 17.8917 2.35675 17.6679L0.758787 16.6711C0.402009 16.4473 0.346733 16.4626 0.145731 16.7423L0 16.6507L0.713564 15.4759L0.859279 15.5675C0.708527 15.8726 0.718579 15.9235 1.08038 16.1472L1.69847 16.5287L1.97987 16.0659L1.97484 16.0608ZM2.44218 15.5471C3.22609 16.0354 3.9296 16.1015 4.1708 15.7048C4.3517 15.4047 4.18084 14.9419 3.34668 14.4232C2.48238 13.8841 1.82911 13.879 1.61304 14.2401C1.42208 14.5554 1.69345 15.0843 2.44218 15.5522V15.5471Z" fill="white"/>
<path d="M7.59813 11.9007C7.36195 12.1549 7.15593 12.1448 6.8494 12.0278C6.70367 11.9719 6.45242 11.86 6.17605 11.7277C5.79414 11.5497 5.61324 11.6108 5.45747 11.7837L6.11575 12.4245C6.46248 12.7601 6.5077 12.7601 6.769 12.5262L6.89462 12.6483L5.9449 13.6501L5.81927 13.5281C6.03535 13.2535 6.04037 13.2026 5.69365 12.8669L5.03537 12.2261C4.86451 12.3991 4.8042 12.5923 4.99516 12.9737C5.13586 13.2484 5.26652 13.4925 5.33184 13.6349C5.45747 13.94 5.48259 14.1384 5.24641 14.3876L4.8846 14.769L4.75898 14.647C4.88963 14.474 4.93486 14.3316 4.81426 14.0316C4.70371 13.7315 4.5831 13.462 4.5228 13.3094C4.4022 12.9687 4.44241 12.75 4.56301 12.5211L4.55295 12.5109C4.47757 12.5415 4.23638 12.5974 3.8394 12.4652C3.40222 12.3177 3.26654 12.3024 3.14091 12.4347L3.08061 12.5008C3.01026 12.5771 2.90474 12.5923 2.81932 12.5109C2.71882 12.4143 2.71378 12.2668 2.85448 12.1295C3.00523 11.9769 3.21629 11.9617 3.56804 12.1092C3.97005 12.2719 4.17608 12.338 4.37206 12.3329C4.60823 12.3329 4.7238 12.2617 4.89465 12.0939L4.39214 11.6057C4.07054 11.2954 4.0203 11.3005 3.759 11.5345L3.63337 11.4124L4.5831 10.4105L4.70872 10.5326C4.49265 10.8072 4.49265 10.8581 4.80923 11.1683L5.31174 11.6514C5.47254 11.4785 5.54792 11.3361 5.53284 11.1073C5.53284 10.9089 5.44741 10.7106 5.27656 10.3292C5.11576 9.9579 5.1258 9.74429 5.27153 9.58155C5.39715 9.44423 5.54792 9.44423 5.64339 9.53578C5.73384 9.62732 5.70369 9.72904 5.64339 9.80532L5.57806 9.87144C5.45746 9.99858 5.47757 10.1461 5.64339 10.5733C5.79414 10.9649 5.74389 11.2141 5.72379 11.2904L5.73384 11.3005C5.94992 11.1683 6.166 11.1225 6.5077 11.2344C6.66348 11.2853 6.93482 11.3972 7.23632 11.4938C7.53783 11.6006 7.67351 11.5497 7.83934 11.4073L7.96496 11.5294L7.60316 11.9108L7.59813 11.9007Z" fill="white"/>
<path d="M8.80226 7.0997C8.53593 7.34382 8.53089 7.38451 8.78717 7.72525L9.92786 9.25098C10.1791 9.58663 10.2243 9.58663 10.5258 9.39846L10.6314 9.53578L9.51078 10.3902L9.40526 10.2529C9.67158 10.0037 9.68666 9.95789 9.4354 9.62223L8.88265 8.8848L7.88267 9.65275L8.43542 10.3902C8.68668 10.7258 8.73692 10.7309 9.02838 10.5478L9.1339 10.6852L8.04347 11.5192L7.93795 11.3819C8.18418 11.148 8.19925 11.1022 7.94799 10.7614L6.80731 9.23572C6.55606 8.90006 6.5058 8.90006 6.19927 9.08823L6.09375 8.95092L7.19424 8.11177L7.29976 8.24908C7.05856 8.47794 7.04348 8.52371 7.29976 8.86446L7.73694 9.44932L8.73693 8.68137L8.29975 8.09651C8.0485 7.76085 7.99824 7.75576 7.70679 7.93885L7.60126 7.80154L8.70678 6.9573L8.8123 7.09462L8.80226 7.0997Z" fill="white"/>
<path d="M10.6671 7.23193C10.7927 7.1353 10.9234 7.05393 11.054 6.97764C11.6118 6.65215 12.1344 6.73353 12.4259 7.24719C12.6419 7.62862 12.6017 7.94902 12.461 8.20331C12.3254 8.45251 12.059 8.67628 11.7475 8.85428L10.7575 9.42897L10.6721 9.2764C10.9585 9.07297 10.9787 9.01703 10.7475 8.61525L9.84801 7.02341C9.62188 6.62164 9.57163 6.61655 9.2651 6.75895L9.17969 6.60638L10.3857 5.90963L10.4711 6.06221C10.1646 6.27072 10.1495 6.31649 10.3807 6.72844L10.6621 7.22684L10.6671 7.23193ZM11.8681 7.62353C11.5867 7.12513 11.2701 7.10478 10.9334 7.29804C10.8681 7.33364 10.8229 7.36924 10.7676 7.40993L11.2902 8.33554C11.4661 8.64577 11.6068 8.70171 11.7776 8.60508C11.9786 8.48811 12.1796 8.17788 11.8681 7.62353ZM12.9686 8.15245L12.8831 7.99988C13.1645 7.80153 13.1796 7.74559 12.9635 7.36416L12.0339 5.72146C11.8279 5.36037 11.7776 5.3502 11.4661 5.4926L11.3806 5.34003L12.5716 4.64837L12.657 4.80094C12.3756 4.99929 12.3605 5.04506 12.5716 5.41632L13.5012 7.05901C13.7123 7.43027 13.7676 7.45062 14.0741 7.30821L14.1595 7.46079L12.9686 8.15245Z" fill="white"/>
<path d="M16.0546 6.64707L15.9843 6.48941C16.3109 6.31141 16.326 6.26055 16.1451 5.83843L15.6828 4.76534C15.6124 4.6026 15.527 4.39917 15.3612 3.95162H15.3461L15.2406 6.71827C15.2406 6.79964 15.2557 6.85559 15.2808 6.91153L15.3059 6.97764L14.3311 7.40485L14.2607 7.24719C14.5773 7.07427 14.5974 7.01324 14.4114 6.58095L13.7079 4.94843C13.517 4.50597 13.4667 4.48563 13.125 4.6026L13.0547 4.44494L14.316 3.89059L14.3863 4.04825C14.0898 4.211 14.0697 4.25168 14.2557 4.68906L14.6577 5.61975C14.7381 5.80284 14.8386 6.04187 15.0245 6.53518H15.0346L15.1451 3.78379C15.1552 3.70751 15.1451 3.64648 15.125 3.60579L15.0999 3.53968L16.0697 3.11247L16.1401 3.27013C15.8235 3.44305 15.8034 3.50408 15.9793 3.91602L16.6978 5.58923C16.8787 6.01135 16.934 6.03169 17.2707 5.91981L17.3411 6.07747L16.0546 6.64198V6.64707ZM13.7783 3.39219C13.7331 3.28539 13.7532 3.15316 13.8637 3.1023C13.9994 3.04127 14.0949 3.15316 14.125 3.2447C14.1803 3.36676 14.2858 3.46848 14.4567 3.39219C14.6275 3.3159 14.6225 3.1735 14.5722 3.05144C14.527 2.97007 14.5119 2.82259 14.6476 2.76156C14.7632 2.7107 14.8687 2.78699 14.9139 2.89379C15.0295 3.16333 14.8788 3.41762 14.527 3.57528C14.1803 3.72785 13.8939 3.66173 13.7783 3.39219Z" fill="white"/>
<path d="M20.1997 1.92241C19.9032 2.07499 19.8781 2.16144 19.8379 2.54796C19.7977 2.98025 19.6921 4.17032 19.6519 4.57717C19.5766 5.31461 19.3504 5.52821 19.1042 5.6045C18.9283 5.66044 18.7173 5.6045 18.662 5.41632C18.6369 5.31969 18.662 5.23324 18.7122 5.17729C18.7675 5.11626 18.853 5.09084 18.9836 5.12644C19.069 5.15695 19.1796 5.16204 19.2449 5.14169C19.3555 5.10609 19.4359 4.92301 19.3806 4.74501C19.3504 4.64838 19.2851 4.55683 19.1746 4.42969C18.9736 4.20592 18.064 3.16842 17.8731 2.97008C17.7273 2.81751 17.6721 2.76665 17.3706 2.81751L17.3203 2.64968L18.5464 2.25807L18.5967 2.4259L18.4711 2.50219C18.3907 2.55813 18.3957 2.61408 18.4912 2.73105L19.5163 3.93129C19.5464 3.43797 19.5816 2.98025 19.5866 2.50219C19.5866 2.27842 19.5565 2.20213 19.4057 2.21739L19.2349 2.22756L19.1846 2.05973L20.1343 1.75967L20.1846 1.9275L20.1997 1.92241Z" fill="white"/>
<path d="M23.6625 1.09343C23.3208 1.21041 23.3007 1.24601 23.3961 1.65795L23.8233 3.52442C23.9187 3.93128 23.9589 3.95163 24.3057 3.90585L24.3459 4.07368L22.9791 4.39409L22.9389 4.22626C23.2856 4.10928 23.3157 4.07368 23.2203 3.66174L23.0142 2.76156L21.7931 3.04636L21.9992 3.94654C22.0947 4.35849 22.1349 4.37883 22.4766 4.33306L22.5168 4.50089L21.1851 4.8162L21.1449 4.64837C21.4615 4.53649 21.4967 4.50089 21.4012 4.08894L20.9741 2.22756C20.8786 1.81561 20.8334 1.79527 20.4816 1.84104L20.4414 1.67321L21.7831 1.35789L21.8233 1.52572C21.5067 1.63761 21.4816 1.67321 21.572 2.08516L21.7328 2.79716L22.9539 2.51236L22.7931 1.80035C22.6977 1.38841 22.6575 1.36807 22.3107 1.41384L22.2705 1.24601L23.6172 0.930691L23.6574 1.09852L23.6625 1.09343Z" fill="white"/>
<path d="M26.4008 3.75327L26.3757 3.58036C26.7325 3.4939 26.7676 3.44813 26.6973 2.99041L26.5264 1.83595C26.5013 1.65794 26.4661 1.44434 26.4209 0.966283H26.4058L25.6069 3.61087C25.5817 3.69224 25.5868 3.7431 25.5968 3.80922L25.6069 3.88042L24.5566 4.04316L24.5315 3.87025C24.8833 3.78379 24.9134 3.73293 24.8431 3.26504L24.5767 1.50537C24.5064 1.02731 24.4561 0.996797 24.0993 1.02223L24.0742 0.84931L25.431 0.640795L25.4561 0.81371C25.1295 0.895082 25.0993 0.930682 25.1647 1.39857L25.3154 2.40046C25.3456 2.59881 25.3858 2.85818 25.441 3.38201H25.4511L26.2501 0.752681C26.2752 0.681481 26.2802 0.615366 26.2752 0.579766L26.2651 0.508565L27.3104 0.345821L27.3355 0.518737C26.9837 0.605195 26.9536 0.656052 27.0189 1.1036L27.2902 2.90904C27.3606 3.36676 27.4058 3.40236 27.7576 3.37693L27.7827 3.54984L26.3958 3.76344L26.4008 3.75327Z" fill="white"/>
<path d="M29.5227 1.65795C30.0604 1.68338 30.4272 1.88681 30.4674 2.3547C30.4926 2.68527 30.3468 2.9599 30.1056 3.13282C29.8845 3.29556 29.5378 3.39727 29.1559 3.42779L27.9951 3.52442L27.98 3.3515C28.3318 3.28539 28.367 3.24979 28.3318 2.82767L28.176 0.930687C28.1408 0.503484 28.0956 0.478055 27.769 0.472969L27.7539 0.300054L29.0906 0.188167C29.4373 0.157653 29.6735 0.188167 29.8594 0.294968C30.0353 0.401769 30.1509 0.595027 30.171 0.839143C30.2112 1.3172 29.8443 1.54098 29.5227 1.63761V1.65795ZM28.9398 1.63761C29.382 1.60201 29.5629 1.39349 29.5277 0.981544C29.4926 0.528913 29.2313 0.381426 28.985 0.401769C28.8845 0.41194 28.8092 0.452626 28.784 0.483141C28.7539 0.518741 28.7539 0.595027 28.7589 0.701828L28.8393 1.64269L28.9398 1.63252V1.63761ZM28.9348 2.77173C28.9649 3.1379 29.0654 3.23453 29.3066 3.2091C29.5629 3.18367 29.8343 2.95481 29.7941 2.46658C29.7539 1.99869 29.4675 1.79018 28.9499 1.83595L28.8594 1.84612L28.9348 2.77173Z" fill="white"/>
<path d="M33.2396 2.40564C33.2145 2.62941 33.1341 3.08713 33.104 3.23462L30.7623 3.30073V3.12782C31.1492 3.08204 31.1945 3.05153 31.1794 2.62941L31.1291 0.71717C31.1191 0.284881 31.0688 0.259453 30.7422 0.23911V0.0661943L32.903 0.0051651C32.908 0.0967086 32.9432 0.44254 32.9683 0.747685L32.7974 0.778199C32.7522 0.605284 32.6869 0.44254 32.6015 0.356082C32.5211 0.269624 32.3954 0.23911 32.1392 0.244195H31.9181C31.7472 0.254367 31.7321 0.264538 31.7321 0.432368L31.7623 1.48512L32.0688 1.47495C32.4557 1.46478 32.516 1.43935 32.5663 1.08843H32.7321L32.7572 2.08524H32.5914C32.5211 1.73432 32.4608 1.71398 32.0688 1.72415L31.7623 1.73432L31.7874 2.59381C31.7924 2.83284 31.8176 2.9549 31.908 3.00576C31.9934 3.04136 32.1492 3.04644 32.3251 3.04136C32.5663 3.03627 32.7221 2.99559 32.8276 2.86844C32.918 2.75656 32.9934 2.59381 33.0738 2.37512L33.2396 2.40564Z" fill="white"/>
<path d="M34.7418 0.0305145C35.1036 0.040686 35.3599 0.101715 35.5408 0.244116C35.7518 0.40686 35.8724 0.661147 35.8624 0.986635C35.8473 1.65287 35.385 1.94784 34.8976 1.9987C34.8272 2.00887 34.7619 2.00378 34.7066 2.00378L34.3951 1.91224L34.38 2.59882C34.37 3.02093 34.4102 3.05653 34.8021 3.10231V3.27014L33.375 3.23454V3.06671C33.7268 3.04128 33.7669 3.00568 33.777 2.58356L33.8222 0.676404C33.8323 0.254287 33.7921 0.218687 33.4705 0.172916V0L34.7418 0.0305145ZM34.4001 1.7139C34.4554 1.73933 34.5509 1.76984 34.6463 1.76984C34.8122 1.76984 35.184 1.65287 35.1991 0.981549C35.2142 0.417031 34.9277 0.228859 34.6463 0.218687C34.5609 0.218687 34.5056 0.23903 34.4755 0.264459C34.4403 0.294973 34.4303 0.340745 34.4303 0.417031L34.4001 1.70881V1.7139Z" fill="white"/>
<path d="M39.0369 2.70561C38.9565 2.94464 38.8057 3.31082 38.7153 3.47865C38.5947 3.49899 38.1625 3.56002 37.851 3.53459C36.6349 3.42779 36.2027 2.52761 36.2681 1.73932C36.3535 0.717084 37.1324 0.0762794 38.2278 0.167823C38.5997 0.198337 38.9313 0.335653 39.0519 0.371253C39.072 0.645883 39.0821 0.879828 39.0871 1.20023L38.9163 1.22057C38.8158 0.620455 38.4791 0.417024 38.1223 0.38651C37.459 0.330567 37.0369 0.971371 36.9716 1.70372C36.8962 2.60898 37.2982 3.24979 37.9213 3.30573C38.3032 3.33624 38.6097 3.1023 38.8811 2.61915L39.0369 2.70561Z" fill="white"/>
<path d="M40.9312 3.855L40.9564 3.68208C41.3232 3.70751 41.3684 3.677 41.4388 3.21928L41.6146 2.06481C41.6398 1.88681 41.6749 1.67321 41.7704 1.20024H41.7553L40.2127 3.47357C40.1674 3.53968 40.1524 3.59562 40.1423 3.65665L40.1323 3.72785L39.082 3.56511L39.1072 3.39219C39.4639 3.41762 39.5142 3.37694 39.5845 2.90905L39.8559 1.14938C39.9313 0.671318 39.8961 0.625546 39.5443 0.539088L39.5694 0.366173L40.9262 0.579774L40.9011 0.75269C40.5644 0.732347 40.5242 0.75269 40.4539 1.22058L40.2981 2.22247C40.2679 2.42082 40.2277 2.68019 40.1272 3.19894H40.1373L41.68 0.940862C41.7252 0.884919 41.7503 0.818805 41.7553 0.783205L41.7654 0.712004L42.8106 0.874748L42.7855 1.04766C42.4287 1.02223 42.3785 1.06292 42.3081 1.50538L42.0317 3.31082C41.9614 3.76854 41.9966 3.81431 42.3433 3.90077L42.3181 4.07368L40.9312 3.855Z" fill="white"/>
<path d="M45.4734 2.35979C45.4734 2.09533 45.4533 1.91733 45.388 1.81053C45.3277 1.70373 45.2222 1.65287 44.9559 1.59184L44.7549 1.54607L44.2373 3.83974C44.1418 4.25169 44.182 4.29237 44.5689 4.41443L44.5287 4.58226L43.0664 4.2466L43.1066 4.07877C43.4885 4.12963 43.5438 4.11437 43.6343 3.70242L44.1518 1.40875L44.0011 1.37315C43.6292 1.28669 43.5388 1.31721 43.4584 1.38332C43.3629 1.44944 43.2725 1.60201 43.1619 1.83087L42.9961 1.79018C43.0916 1.43927 43.2021 1.09344 43.2675 0.844234L43.378 0.869663C43.4232 0.991721 43.4785 1.02224 43.6041 1.04766L45.4031 1.4647C45.5187 1.49012 45.589 1.47487 45.6845 1.40367L45.795 1.4291C45.7548 1.63253 45.6795 2.06481 45.6342 2.38013L45.4684 2.3547L45.4734 2.35979Z" fill="white"/>
<path d="M47.8597 4.68398C47.7642 4.88741 47.5532 5.29935 47.4728 5.43158L45.2266 4.76026L45.2768 4.59243C45.6587 4.66872 45.714 4.65346 45.8346 4.25169L46.3723 2.42082C46.4929 2.00379 46.4577 1.96819 46.1512 1.84613L46.2014 1.6783L48.2768 2.29876C48.2567 2.38522 48.1813 2.72596 48.1109 3.02602L47.9401 3.00059C47.9501 2.82259 47.9401 2.64459 47.8848 2.53779C47.8346 2.43099 47.724 2.35979 47.4778 2.28859L47.2667 2.22756C47.1059 2.1767 47.0808 2.18179 47.0356 2.33945L46.7391 3.35151L47.0356 3.43797C47.4074 3.54985 47.4728 3.54477 47.6285 3.22437L47.7893 3.27014L47.5079 4.23134L47.3471 4.18557C47.3924 3.82449 47.3371 3.78888 46.9652 3.677L46.6687 3.59054L46.4276 4.41443C46.3622 4.64329 46.3421 4.77043 46.4175 4.84163C46.4878 4.90266 46.6336 4.95861 46.7994 5.00946C47.0306 5.07558 47.1914 5.09084 47.327 4.99929C47.4476 4.92301 47.5682 4.79078 47.7089 4.60769L47.8597 4.68906V4.68398Z" fill="white"/>
<path d="M50.882 4.14489C50.9172 3.88043 50.9172 3.70243 50.872 3.59054C50.8267 3.47865 50.7262 3.41254 50.47 3.31591L50.274 3.24471L49.4649 5.45192C49.3192 5.84861 49.3544 5.89438 49.7212 6.0673L49.6609 6.23004L48.2539 5.70113L48.3142 5.53838C48.6861 5.6401 48.7413 5.62992 48.8871 5.23324L49.6961 3.02602L49.5504 2.97008C49.1936 2.83785 49.0981 2.85311 49.0077 2.90905C48.9072 2.95991 48.7966 3.10231 48.6559 3.31082L48.4951 3.24979C48.6358 2.91413 48.7866 2.58356 48.882 2.34962L48.9876 2.3903C49.0127 2.51745 49.068 2.55305 49.1886 2.59882L50.9222 3.24979C51.0328 3.29048 51.1031 3.28539 51.2086 3.22437L51.3142 3.26505C51.2488 3.4634 51.1182 3.88043 51.0277 4.19066L50.8669 4.1398L50.882 4.14489Z" fill="white"/>
<path d="M51.898 8.16262C51.5111 7.39976 51.5563 6.57078 51.9382 5.74689C52.3201 4.923 52.9131 4.35848 53.7422 4.17031L53.7925 4.34322C53.2297 4.57717 52.6869 5.16203 52.3302 5.93506C51.9734 6.7081 51.8729 7.5625 52.0588 8.08633L51.893 8.16262H51.898Z" fill="white"/>
<path d="M54.1995 8.42709L54.285 8.27452C54.6216 8.43217 54.6719 8.41183 54.893 8.01006L55.4608 6.98782C55.5462 6.83016 55.6518 6.64199 55.903 6.23513H55.893L53.6568 7.81171C53.5865 7.85748 53.5563 7.90326 53.5262 7.9592L53.491 8.02023L52.5664 7.4964L52.6518 7.34382C52.9785 7.4964 53.0388 7.47097 53.2699 7.05902L54.1342 5.50278C54.3654 5.08067 54.3503 5.02472 54.0538 4.82129L54.1392 4.66872L55.3352 5.35021L55.2498 5.50278C54.9433 5.36038 54.898 5.37055 54.6669 5.7825L54.1744 6.66742C54.0789 6.84033 53.9483 7.06919 53.6769 7.52183H53.687L55.9131 5.95541C55.9784 5.91473 56.0186 5.86896 56.0387 5.83336L56.0739 5.77233L56.9935 6.29616L56.908 6.44873C56.5814 6.29616 56.5211 6.32159 56.305 6.71319L55.4206 8.30503C55.1945 8.7068 55.2146 8.76275 55.506 8.96618L55.4206 9.11875L54.1995 8.422V8.42709Z" fill="white"/>
<path d="M59.6399 8.39656C59.3434 8.24908 59.258 8.27959 58.9314 8.48302C58.5646 8.71696 57.5696 9.3476 57.2229 9.56628C56.5947 9.9528 56.2932 9.89686 56.0822 9.74937C55.9314 9.64257 55.851 9.43914 55.9616 9.2764C56.0219 9.20011 56.1073 9.16451 56.1827 9.1696C56.2631 9.17977 56.3384 9.23062 56.3887 9.35777C56.4188 9.44423 56.4792 9.53577 56.5344 9.57646C56.6299 9.64257 56.8209 9.60188 56.9314 9.44423C56.9867 9.36285 57.0219 9.25097 57.052 9.08822C57.1073 8.79325 57.3686 7.43027 57.4138 7.15564C57.449 6.94712 57.449 6.87084 57.2329 6.65724L57.3334 6.51484L58.3836 7.26753L58.2832 7.40993L58.1475 7.35398C58.057 7.32347 58.0118 7.35907 57.9816 7.51164L57.66 9.06279C58.0671 8.78816 58.444 8.53896 58.8309 8.25416C59.0118 8.12193 59.047 8.05073 58.9465 7.93376L58.8359 7.80662L58.9364 7.66421L59.7505 8.24908L59.65 8.39148L59.6399 8.39656Z" fill="white"/>
<path d="M59.904 10.1867C60.0196 10.2783 60.1251 10.3648 60.2708 10.497C60.7683 10.9394 60.8638 11.4582 60.4919 11.8803C60.2256 12.1854 59.9341 12.2566 59.6427 12.2109C59.3814 12.1702 59.0748 11.9668 58.8085 11.7277L57.9141 10.9293L58.0246 10.8021C58.311 11.0157 58.3613 11.0208 58.6879 10.6496L59.8588 9.30692C60.1753 8.94074 60.1653 8.88988 59.9341 8.64577L60.0447 8.51862L61.6879 9.98841C61.6075 10.0799 61.3964 10.3495 61.2055 10.6038L61.0597 10.5072C61.1602 10.3088 61.2005 10.1918 61.2206 10.0596C61.2407 9.93246 61.2004 9.84092 60.9894 9.65275L60.7733 9.45949C60.6477 9.3476 60.6376 9.33743 60.517 9.47983L59.899 10.1867H59.904ZM59.9593 11.4633C60.306 11.0666 60.2256 10.736 59.9291 10.4766C59.8738 10.4258 59.8186 10.3851 59.7633 10.3444L59.11 11.092C58.8588 11.3768 58.8638 11.504 59.0397 11.6565C59.2005 11.7989 59.5824 11.8956 59.9542 11.4633H59.9593Z" fill="white"/>
<path d="M63.0687 13.1924C62.8576 12.9992 62.8124 13.0195 62.6214 13.1924L61.722 14.0112C61.526 14.1892 61.5059 14.2299 61.6717 14.4639L61.5561 14.5707L60.8074 13.7315L60.923 13.6247C61.0989 13.7773 61.1441 13.7722 61.335 13.5993L61.8124 13.1619C61.9029 13.0805 62.0084 12.9839 62.2999 12.7449H62.2948L60.6768 13.3247C60.6265 13.345 60.5863 13.3704 60.5511 13.401L60.526 13.4264L59.918 12.7398L60.0336 12.633C60.2446 12.8263 60.2798 12.8161 60.4808 12.633L61.3752 11.8193C61.5762 11.6362 61.5913 11.5955 61.4305 11.3666L61.5411 11.2649L62.2848 12.1041L62.1742 12.2058C61.9983 12.0532 61.9531 12.0583 61.7622 12.2312L61.3602 12.5974C61.2446 12.7042 61.0838 12.8517 60.8124 13.0704H60.8175L62.4406 12.4855C62.4808 12.4703 62.5159 12.455 62.536 12.4347L62.5561 12.4143L63.1642 13.1009L63.0586 13.1975L63.0687 13.1924Z" fill="white"/>
<path d="M62.6462 16.1523L62.7919 16.0557C63.008 16.3354 63.0582 16.3456 63.4602 16.0761L65.1939 14.9165C65.3547 14.8097 65.3497 14.7995 65.2542 14.652L64.812 13.9706C64.7165 13.8231 64.7014 13.8231 64.5607 13.9146L62.817 15.0793C62.415 15.3488 62.405 15.3997 62.5658 15.6997L62.4201 15.7963L61.6562 14.6266L61.802 14.53C62.0231 14.8148 62.0733 14.83 62.4753 14.5605L63.9627 13.5688C64.3497 13.3094 64.3547 13.2586 64.1738 12.928L64.3195 12.8313L66.0984 15.5522L65.9527 15.6489C65.7265 15.3539 65.6763 15.3437 65.2843 15.6082L63.807 16.5948C63.405 16.8643 63.3949 16.9152 63.5708 17.2356L63.4251 17.3322L62.6562 16.1523H62.6462Z" fill="white"/>
<path d="M62.7305 17.9832L62.7958 17.8205C63.3586 18.0086 64.1626 17.8917 64.9264 17.5255C65.6902 17.1593 66.3083 16.549 66.5043 16.0354L66.6651 16.0913C66.4791 16.9254 65.9264 17.5357 65.1123 17.9273C64.3033 18.3189 63.4893 18.3697 62.7305 17.9883V17.9832Z" fill="white"/>
<path d="M3.04251 25.2863C3.31888 25.1134 3.63044 24.849 3.53497 24.4675C3.46964 24.2031 3.22843 24.0607 2.94703 24.1319C2.68573 24.198 2.5802 24.4065 2.46463 24.8744C2.34403 25.4287 2.16312 25.8407 1.69077 25.9577C1.14806 26.095 0.610385 25.7491 0.439533 25.0575C0.399333 24.8897 0.37923 24.7167 0.38928 24.5642C0.394305 24.4218 0.409383 24.3251 0.424459 24.2539C0.529985 24.1776 0.916913 24.0149 1.19329 23.9081L1.2938 24.0607C1.01239 24.2336 0.54003 24.6455 0.655607 25.0982C0.725957 25.3881 0.972195 25.5203 1.27872 25.4389C1.56013 25.3677 1.68574 25.1134 1.78624 24.7116C1.91689 24.1675 2.08775 23.7657 2.54503 23.6487C3.06764 23.5165 3.58018 23.8216 3.74601 24.4879C3.82138 24.7879 3.79124 25.0829 3.78622 25.1745C3.61537 25.2406 3.40934 25.327 3.12291 25.4389L3.04251 25.2813V25.2863Z" fill="white"/>
<path d="M4.20094 29.4465C3.2713 29.9652 2.34669 29.6245 1.90951 28.8209C1.44219 27.9716 1.75373 27.0257 2.57784 26.5628C3.31652 26.1458 4.33158 26.2628 4.86423 27.2393C5.28633 28.0123 5.05518 28.9735 4.20595 29.4465H4.20094ZM3.02005 27.1731C2.28136 27.5902 1.83412 28.2513 2.1306 28.7955C2.35171 29.1973 2.92959 29.3041 3.72355 28.8565C4.57781 28.3785 4.90444 27.7478 4.63308 27.2545C4.40193 26.8273 3.76375 26.7561 3.02005 27.1731Z" fill="white"/>
<path d="M7.93159 31.5825C7.74566 31.3994 7.58989 31.3791 7.44416 31.4808C7.31351 31.5672 7.16778 31.6791 6.91151 31.9131L6.51452 32.2792C6.12759 32.6352 5.77082 32.859 5.37384 32.859C5.05224 32.859 4.74069 32.6963 4.50953 32.442C4.29346 32.2029 4.1427 31.9334 4.1226 31.6384C4.1025 31.2875 4.2834 30.9417 4.71053 30.5501L5.5648 29.7567C5.9065 29.4414 5.89644 29.3854 5.68036 29.0956L5.80599 28.9786L6.78085 30.0568L6.65522 30.1737C6.39392 29.9347 6.33865 29.9194 5.99694 30.2348L5.20801 30.9671C4.6653 31.4706 4.52461 31.9588 4.87134 32.3453C5.25827 32.7726 5.75072 32.6556 6.35875 32.0961L6.74567 31.7351C7.00195 31.496 7.12758 31.3485 7.21803 31.2316C7.32355 31.0943 7.32356 30.9417 7.11754 30.6874L7.24316 30.5704L8.05219 31.4655L7.92656 31.5825H7.93159Z" fill="white"/>
<path d="M9.85266 33.9525C9.96321 33.7134 10.0135 33.5354 10.0034 33.4134C9.98833 33.2913 9.91296 33.1947 9.68683 33.0167L9.51598 32.8794L8.07882 34.7306C7.82254 35.0611 7.84264 35.1171 8.14916 35.407L8.04364 35.5443L6.8125 34.5678L6.91804 34.4305C7.25472 34.6543 7.30998 34.6594 7.57129 34.3288L9.00844 32.4776L8.8778 32.3759C8.56625 32.1267 8.46575 32.1114 8.36022 32.1368C8.24465 32.1521 8.09388 32.2487 7.89288 32.4064L7.75218 32.2945C7.98836 32.0199 8.23459 31.7554 8.39539 31.5571L8.49086 31.6334C8.48081 31.7656 8.52101 31.8164 8.63156 31.9029L10.1491 33.1082C10.2496 33.1845 10.32 33.2049 10.4406 33.1794L10.5361 33.2557C10.4104 33.4235 10.1642 33.7846 9.98833 34.0491L9.84763 33.9474L9.85266 33.9525Z" fill="white"/>
<path d="M13.7122 35.5392C13.3705 35.3765 13.3303 35.3866 13.1193 35.7528L12.1595 37.4057C11.9485 37.7668 11.9686 37.8125 12.265 38.0261L12.1796 38.1787L10.9183 37.4311L11.0037 37.2785C11.3505 37.4413 11.3957 37.4362 11.6067 37.07L12.0691 36.2716L10.9384 35.6002L10.4761 36.3987C10.2651 36.7649 10.2852 36.8106 10.5716 37.0192L10.4862 37.1717L9.25 36.4394L9.33543 36.2868C9.65704 36.4343 9.70727 36.4343 9.91832 36.0681L10.8731 34.4204C11.0841 34.0542 11.064 34.0084 10.7625 33.7897L10.848 33.6371L12.0891 34.3746L12.0037 34.5272C11.6872 34.3797 11.6419 34.3847 11.4309 34.7509L11.0641 35.3816L12.1947 36.0529L12.5615 35.4222C12.7726 35.0561 12.7525 35.0103 12.461 34.7967L12.5464 34.6441L13.7926 35.3816L13.7072 35.5341L13.7122 35.5392Z" fill="white"/>
<path d="M15.6482 38.8704C15.5276 39.0586 15.2563 39.4349 15.1608 39.557L12.9297 38.5398L13 38.3821C13.387 38.5195 13.4422 38.5144 13.6131 38.1279L14.3869 36.3834C14.5628 35.9868 14.5277 35.9461 14.2312 35.7782L14.3015 35.6206L16.3618 36.5564C16.3316 36.6377 16.211 36.9683 16.1055 37.2582L15.9347 37.2073C15.9648 37.0293 15.9749 36.8564 15.9347 36.7394C15.8945 36.6225 15.794 36.536 15.5477 36.4292L15.3367 36.3326C15.1759 36.2614 15.1508 36.2614 15.0854 36.4089L14.6583 37.3701L14.9498 37.5023C15.3166 37.6701 15.3869 37.6752 15.5879 37.3803L15.7437 37.4515L15.3367 38.3618L15.1809 38.2906C15.2714 37.9397 15.2211 37.8939 14.8493 37.7261L14.5578 37.5939L14.2061 38.3821C14.1106 38.6008 14.0804 38.7178 14.1457 38.8043C14.206 38.8755 14.3518 38.9518 14.5176 39.028C14.7437 39.1298 14.9146 39.1704 15.0653 39.0992C15.196 39.0382 15.3417 38.9314 15.5075 38.7636L15.6533 38.8653L15.6482 38.8704Z" fill="white"/>
<path d="M18.7459 40.9148C18.7208 40.9047 18.6706 40.8843 18.6103 40.864C18.0475 40.6351 17.9218 40.4419 17.8364 40.0808C17.7861 39.8468 17.751 39.5519 17.7058 39.2518C17.6806 39.084 17.6203 38.9975 17.4746 38.9467L17.3892 38.9161L17.153 39.6027C17.0173 39.9943 17.0425 40.0503 17.3791 40.2028L17.3238 40.3656L15.957 39.8824L16.0123 39.7197C16.3641 39.8061 16.4294 39.7807 16.56 39.3942L17.1831 37.5888C17.3138 37.2124 17.2887 37.1514 16.9671 37.0039L17.0223 36.8412L18.2987 37.2887C18.6957 37.4311 18.9067 37.5582 19.0525 37.7464C19.1881 37.9397 19.2434 38.1889 19.1429 38.4788C19.0022 38.8907 18.6605 39.0229 18.3138 39.0433C18.3339 39.206 18.3942 39.5773 18.4545 39.8417C18.5248 40.1622 18.5701 40.3452 18.6203 40.4775C18.6806 40.6199 18.7409 40.7063 18.8263 40.7775L18.7459 40.9199V40.9148ZM17.5751 38.7687C17.766 38.8348 17.9319 38.8551 18.0625 38.8043C18.2635 38.728 18.3892 38.5601 18.4746 38.3211C18.6454 37.8176 18.4294 37.5379 18.1731 37.4514C18.0575 37.4108 17.9922 37.4057 17.952 37.426C17.9118 37.4413 17.8867 37.487 17.8515 37.5837L17.4595 38.728L17.5751 38.7687Z" fill="white"/>
<path d="M23.3492 38.9161C23.093 38.8653 22.9774 38.9111 22.902 39.1196C22.8518 39.2671 22.7664 39.4857 22.6558 39.9129L22.1734 41.8303L21.9523 41.7743L20.6207 38.8755H20.6056L20.3342 39.9536C20.2287 40.3757 20.1986 40.5995 20.1734 40.7521C20.1433 40.9708 20.1985 41.0827 20.5402 41.1844L20.5001 41.3522L19.3594 41.0572L19.3996 40.8894C19.6659 40.9352 19.7915 40.8894 19.8619 40.686C19.9222 40.5334 20.0026 40.3198 20.1081 39.8977L20.3594 38.8958C20.4398 38.5754 20.4548 38.4889 20.3945 38.3516C20.3342 38.2143 20.2438 38.1482 20.0478 38.077L20.088 37.9142L20.9473 38.1329L22.1985 40.7063H22.2136L22.4246 39.8621C22.5302 39.4349 22.5653 39.2009 22.5854 39.0585C22.6156 38.8449 22.5402 38.7381 22.2035 38.6313L22.2437 38.4686L23.3794 38.7585L23.3392 38.9212L23.3492 38.9161Z" fill="white"/>
<path d="M27.7027 39.6332C27.4464 39.6078 27.3107 39.6943 27.2605 39.8621C27.2152 40.0096 27.17 40.1927 27.1147 40.5385L27.0344 41.0725C26.954 41.5963 26.8183 41.9981 26.5067 42.2524C26.2555 42.4558 25.9138 42.527 25.5771 42.4762C25.2655 42.4304 24.9741 42.3134 24.7731 42.0947C24.5419 41.8303 24.4666 41.4488 24.552 40.8742L24.7278 39.7146C24.7982 39.2518 24.753 39.2162 24.4062 39.1247L24.4314 38.9517L25.8585 39.1704L25.8334 39.3433C25.4816 39.323 25.4314 39.3433 25.361 39.8112L25.2002 40.8843C25.0896 41.6218 25.2806 42.0897 25.7932 42.171C26.356 42.2575 26.6725 41.8506 26.7931 41.0318L26.8736 40.5029C26.9238 40.152 26.9288 39.9638 26.9288 39.8112C26.9288 39.6332 26.8333 39.5213 26.5117 39.4501L26.5369 39.2772L27.7228 39.4603L27.6977 39.6332H27.7027Z" fill="white"/>
<path d="M31.416 39.9129C31.1547 39.9129 31.0492 39.9689 31.009 40.1927C30.9838 40.3452 30.9386 40.5792 30.9085 41.0166L30.7678 42.9898L30.5366 42.9746L28.7226 40.3554H28.7075L28.6271 41.4641C28.5969 41.9015 28.602 42.1253 28.607 42.2778C28.617 42.4965 28.6874 42.5982 29.0442 42.6389L29.0341 42.8118L27.8633 42.7254L27.8733 42.5525C28.1447 42.5525 28.2603 42.4813 28.2954 42.2676C28.3256 42.1049 28.3708 41.8862 28.401 41.4488L28.4763 40.4164C28.5015 40.0909 28.5015 39.9994 28.4211 39.8723C28.3407 39.7451 28.2351 39.6993 28.0341 39.6637L28.0442 39.4959L28.9286 39.562L30.607 41.876H30.622L30.6874 41.0013C30.7175 40.5588 30.7125 40.3249 30.7075 40.1774C30.6974 39.9638 30.6069 39.8723 30.2552 39.8265L30.2653 39.6587L31.4361 39.7451L31.426 39.9129H31.416Z" fill="white"/>
<path d="M31.8633 42.9695V42.7966C32.2251 42.766 32.2703 42.7304 32.2753 42.3134L32.3005 40.4063C32.3055 39.9791 32.2653 39.9485 31.9035 39.9079V39.7349L33.3507 39.7553V39.9282C32.9889 39.9587 32.9487 39.9892 32.9437 40.4164L32.9185 42.3236C32.9135 42.7406 32.9487 42.7762 33.3105 42.8169V42.9898L31.8633 42.9695Z" fill="white"/>
<path d="M37.1206 39.8163C36.8091 39.8621 36.7287 39.9282 36.5528 40.4063C36.4121 40.803 36.0202 41.9473 35.6885 42.9898L35.4473 43C35.0855 42.1049 34.583 40.925 34.3669 40.4164C34.2011 40.0401 34.1207 39.974 33.8242 39.9536V39.7756L35.2463 39.7146V39.8926C34.9046 39.9638 34.9096 40.0147 34.99 40.2283C35.1458 40.6199 35.5679 41.6116 35.7589 42.0744H35.7739C36.0101 41.337 36.191 40.7521 36.3016 40.3147C36.397 39.9689 36.3971 39.8977 36.0001 39.8621V39.6841L37.1156 39.6383V39.8163H37.1206Z" fill="white"/>
<path d="M40.3564 41.7031C40.3464 41.932 40.3011 42.3897 40.276 42.5423L37.8439 42.8118L37.8238 42.6389C38.2258 42.5575 38.271 42.5219 38.2258 42.1049L38.0198 40.2028C37.9746 39.7706 37.9243 39.7553 37.5826 39.7604L37.5625 39.5875L39.8087 39.3383C39.8238 39.4247 39.8841 39.7706 39.9394 40.0757L39.7635 40.1215C39.7032 39.9536 39.6228 39.796 39.5273 39.7146C39.4368 39.6332 39.3062 39.6129 39.0348 39.6434L38.8037 39.6688C38.6278 39.6892 38.6077 39.6994 38.6278 39.8621L38.7434 40.9098L39.065 40.8742C39.467 40.8284 39.5323 40.7979 39.5524 40.4419L39.7233 40.4215L39.8288 41.4183L39.658 41.4387C39.5575 41.0878 39.4921 41.0776 39.0851 41.1234L38.7635 41.159L38.859 42.0185C38.8841 42.2575 38.9142 42.3745 39.0198 42.4101C39.1102 42.4406 39.271 42.4304 39.457 42.4101C39.7032 42.3846 39.869 42.3287 39.9645 42.1914C40.0499 42.0744 40.1152 41.9066 40.1805 41.6777L40.3564 41.693V41.7031Z" fill="white"/>
<path d="M44.0203 41.9472C43.9902 41.9472 43.9399 41.9574 43.8796 41.9676C43.2766 42.0439 43.0756 41.9422 42.8243 41.6675C42.6635 41.4895 42.4927 41.2454 42.3068 41.0115C42.2063 40.8792 42.1108 40.8284 41.96 40.8589L41.8696 40.8741L41.9952 41.5912C42.0656 41.9981 42.1158 42.0337 42.4826 42.0032L42.5128 42.1761L41.0857 42.4355L41.0555 42.2626C41.4023 42.1659 41.4475 42.11 41.3771 41.7031L41.0455 39.8214C40.9751 39.4298 40.9249 39.3891 40.5731 39.4145L40.543 39.2416L41.8696 39.0026C42.2867 38.9263 42.5279 38.9314 42.749 39.028C42.96 39.1247 43.1258 39.3179 43.1811 39.6231C43.2565 40.0553 43.0254 40.3401 42.7339 40.5283C42.8294 40.6605 43.0605 40.9555 43.2464 41.1539C43.4625 41.398 43.5932 41.5353 43.6987 41.6218C43.8243 41.7133 43.9148 41.7591 44.0253 41.7794V41.9422L44.0203 41.9472ZM41.96 40.6555C42.161 40.6199 42.3118 40.5537 42.4022 40.4419C42.5379 40.274 42.5681 40.0655 42.5279 39.8163C42.4374 39.2925 42.1108 39.1603 41.8445 39.206C41.7239 39.2264 41.6636 39.2569 41.6384 39.2925C41.6083 39.3281 41.6083 39.3789 41.6284 39.4807L41.8394 40.6707L41.96 40.6504V40.6555Z" fill="white"/>
<path d="M45.7729 38.9619C45.6021 38.6822 45.3408 38.3669 44.9639 38.4635C44.7026 38.5296 44.5619 38.7738 44.6323 39.0586C44.6976 39.323 44.9036 39.4298 45.3659 39.5468C45.9136 39.6688 46.3156 39.857 46.4362 40.33C46.5719 40.8793 46.2252 41.4234 45.5468 41.5963C45.381 41.637 45.2101 41.6574 45.0594 41.6472C44.9187 41.6421 44.8232 41.6269 44.7529 41.6116C44.6775 41.5048 44.5167 41.1132 44.4112 40.8335L44.5619 40.7318C44.7328 41.0166 45.1398 41.4946 45.587 41.3777C45.8734 41.3065 46.0041 41.0573 45.9237 40.747C45.8533 40.4622 45.6021 40.3351 45.2051 40.2334C44.6674 40.1011 44.2704 39.9282 44.1549 39.4654C44.0242 38.9365 44.3257 38.4178 44.989 38.2499C45.2855 38.1736 45.577 38.2042 45.6674 38.2092C45.7277 38.3822 45.8182 38.5907 45.9287 38.8806L45.7729 38.9619Z" fill="white"/>
<path d="M47.3705 41.0267L47.3202 40.8589C47.6519 40.7165 47.6871 40.6707 47.5614 40.2741L47.0037 38.4534C46.878 38.0465 46.8278 38.0312 46.476 38.1024L46.4258 37.9346L47.8077 37.4972L47.8579 37.6651C47.5263 37.8075 47.4961 37.8482 47.6217 38.255L48.1795 40.0757C48.3001 40.4724 48.3504 40.4978 48.7021 40.4215L48.7524 40.5894L47.3705 41.0267Z" fill="white"/>
<path d="M51.093 37.1666C50.9473 36.948 50.8217 36.8157 50.7111 36.7598C50.6006 36.7089 50.48 36.7293 50.2136 36.831L50.0126 36.9124L50.8568 39.1094C51.0076 39.5061 51.0629 39.5163 51.4699 39.3942L51.5302 39.5569L50.0729 40.1316L50.0126 39.9689C50.3744 39.7909 50.4096 39.7451 50.2589 39.3484L49.4146 37.1514L49.2639 37.2124C48.892 37.3599 48.8317 37.4362 48.7966 37.5379C48.7513 37.6447 48.7564 37.8278 48.7865 38.0821L48.6207 38.1482C48.5101 37.8024 48.4046 37.4514 48.3242 37.2124L48.4348 37.1666C48.5403 37.2429 48.6056 37.2328 48.7363 37.1819L50.5352 36.475C50.6508 36.4292 50.7011 36.3784 50.7463 36.2563L50.8568 36.2105C50.9372 36.4038 51.1131 36.8056 51.2538 37.0904L51.098 37.1616L51.093 37.1666Z" fill="white"/>
<path d="M54.0852 34.9391C53.8289 35.1069 53.7837 35.229 53.7586 35.5748C53.7335 35.9206 53.7083 36.1698 53.7134 36.6937C53.7134 36.8462 53.7184 36.9022 53.7887 37.0395L54.0701 37.6091C54.2711 38.016 54.3164 38.0261 54.7184 37.8583L54.7937 38.0109L53.4018 38.7229L53.3264 38.5703C53.6732 38.3516 53.7033 38.3058 53.5023 37.9041L53.2561 37.4108C53.2008 37.2989 53.1606 37.2633 53.0802 37.1921C52.844 37.009 52.5375 36.7954 52.045 36.4546C51.7385 36.241 51.643 36.2359 51.3918 36.3173L51.3164 36.1597L52.5375 35.5392L52.6129 35.6969C52.3516 35.8799 52.3868 35.9308 52.5375 36.0529C52.844 36.2868 53.1807 36.5258 53.5123 36.77C53.5123 36.4546 53.5224 35.9257 53.4923 35.6002C53.4722 35.3866 53.437 35.3256 53.1003 35.4477L53.0249 35.29L54.0199 34.7814L54.0953 34.9391H54.0852Z" fill="white"/>
<path d="M58.1171 36.9836C57.2477 36.9327 56.5693 36.4597 56.0769 35.6918C55.5895 34.9289 55.4437 34.1101 55.7503 33.2811L55.9261 33.3269C55.8055 33.9423 56.0015 34.7255 56.4638 35.4426C56.9261 36.1597 57.5944 36.6937 58.1522 36.7954L58.1221 36.9836H58.1171Z" fill="white"/>
<path d="M57.8353 36.1495L57.7348 36.0071C58.0061 35.763 58.0212 35.7121 57.78 35.3714L56.6745 33.8253C56.4283 33.4795 56.373 33.4795 56.0614 33.6626L55.9609 33.5202L57.1318 32.6658L57.2323 32.8082C56.9609 33.0523 56.9458 33.0981 57.1921 33.4439L58.2976 34.99C58.5388 35.3307 58.589 35.3358 58.9006 35.1476L59.0011 35.29L57.8303 36.1444L57.8353 36.1495Z" fill="white"/>
<path d="M61.6249 32.9658L61.5043 32.8387C61.7355 32.559 61.7305 32.5132 61.4139 32.1877L60.0923 30.8146L60.0772 30.8298L61.0873 33.4388L60.9918 33.5354L58.5446 32.3962L58.5295 32.4115L59.3787 33.3879C59.6451 33.7033 59.8109 33.866 59.9265 33.9626C60.0923 34.1101 60.1928 34.0796 60.444 33.8762L60.5647 34.0033L59.7305 34.817L59.6099 34.6899C59.7908 34.4814 59.7958 34.3593 59.6953 34.2067C59.6099 34.0745 59.4541 33.8609 59.1225 33.4591L58.4994 32.6963C58.1426 32.264 58.0672 32.2386 57.7456 32.4979L57.625 32.3708L58.3385 31.674L60.4993 32.5946L59.6802 30.367L60.3787 29.6855L60.4993 29.8127C60.2481 30.1127 60.2631 30.1534 60.5546 30.4433L61.8611 31.7503C62.1827 32.0707 62.2229 32.0809 62.5194 31.847L62.64 31.9741L61.6149 32.9709L61.6249 32.9658Z" fill="white"/>
<path d="M62.8237 28.6684C63.1906 28.2361 63.5825 28.0581 63.9745 28.3174C64.2508 28.5005 64.3664 28.7955 64.3413 29.1057C64.3262 29.3905 64.1805 29.7415 63.9594 30.0771L63.286 31.1044L63.1403 31.0078C63.3162 30.6772 63.3112 30.6213 62.9644 30.3873L61.3966 29.3346C61.0449 29.1006 60.9946 29.1159 60.7785 29.3854L60.6328 29.2888L61.4067 28.1038C61.6127 27.7936 61.7836 27.6156 61.9846 27.5292C62.1805 27.4478 62.4067 27.4681 62.6077 27.6054C62.9996 27.8699 62.9393 28.3174 62.8036 28.648L62.8187 28.6582L62.8237 28.6684ZM62.4368 29.1362C62.6931 28.7497 62.6479 28.47 62.3112 28.2412C61.9393 27.992 61.6579 28.114 61.5122 28.3327C61.4519 28.4242 61.4368 28.5107 61.4469 28.5514C61.4569 28.5972 61.5122 28.648 61.5976 28.704L62.3765 29.2278L62.4368 29.1362ZM63.3061 29.8533C63.6076 30.0568 63.7483 30.0313 63.884 29.8177C64.0297 29.5889 64.0297 29.2227 63.6277 28.9532C63.2408 28.6938 62.8941 28.8057 62.5926 29.2634L62.5373 29.3448L63.3061 29.8584V29.8533Z" fill="white"/>
<path d="M65.3705 25.1897C65.5565 25.3016 65.9735 25.5711 66.0841 25.6525L65.26 27.8648L65.0992 27.8038C65.2148 27.3969 65.2047 27.341 64.8128 27.1884L63.049 26.5171C62.652 26.3645 62.6068 26.4001 62.446 26.7358L62.2852 26.6747L62.8027 25.2863L62.9635 25.3474C62.8681 25.7034 62.8781 25.7542 63.2751 25.9068L65.0741 26.5934C65.2901 26.6747 65.3756 26.69 65.4509 26.6137C65.5112 26.5425 65.5665 26.4306 65.6168 26.2882C65.6871 26.095 65.7173 25.917 65.6369 25.7593C65.5766 25.6423 65.461 25.4999 65.255 25.327L65.3655 25.1846L65.3705 25.1897Z" fill="white"/>
<path d="M66.9995 25.3931L66.8488 25.4898C66.5221 24.9761 65.8136 24.5591 64.9845 24.3811C64.1553 24.2031 63.3011 24.315 62.8338 24.6201L62.7383 24.4726C63.3966 23.8928 64.2006 23.7403 65.085 23.9335C65.9593 24.1217 66.6327 24.5998 66.9995 25.3982V25.3931Z" fill="white"/>
<path d="M2.05238 20.8617C2.05238 20.3277 1.62525 19.8904 1.0926 19.8904C0.559944 19.8904 0.132812 20.3226 0.132812 20.8617C0.132812 21.4008 0.559944 21.8331 1.0926 21.8331C1.62525 21.8331 2.05238 21.4008 2.05238 20.8617Z" fill="white"/>
<path d="M66.5875 20.8617C66.5875 20.3277 66.1604 19.8904 65.6278 19.8904C65.0951 19.8904 64.668 20.3226 64.668 20.8617C64.668 21.4008 65.0951 21.8331 65.6278 21.8331C66.1604 21.8331 66.5875 21.4008 66.5875 20.8617Z" fill="white"/>
</svg>
