<svg width="102" height="111" viewBox="0 0 102 111" fill="none" xmlns="http://www.w3.org/2000/svg">
<g filter="url(#filter0_d_406_632)">
<path d="M46.9167 33.7503C49.2869 33.7503 51.2083 31.8289 51.2083 29.4587C51.2083 27.0884 49.2869 25.167 46.9167 25.167C44.5464 25.167 42.625 27.0884 42.625 29.4587C42.625 31.8289 44.5464 33.7503 46.9167 33.7503Z" fill="url(#paint0_linear_406_632)"/>
<path d="M21.168 76.667H72.668V85.2503H21.168V76.667ZM38.3346 54.4791L50.317 66.47L67.1918 49.5823L72.668 55.2087V38.042H55.5013L61.1234 43.5139L50.3127 54.3246L38.3346 42.3337L21.168 59.5003L27.2364 65.5687L38.3346 54.4791Z" fill="url(#paint1_linear_406_632)"/>
<path d="M76.9583 16.5836H62.8044C62.3793 15.9517 61.9209 15.3429 61.4311 14.7597L61.3882 14.7082C58.2339 11.037 53.7981 8.70703 48.9853 8.19342C47.6183 7.93553 46.2151 7.93553 44.8481 8.19342C40.0352 8.70703 35.5995 11.037 32.4452 14.7082L32.4023 14.7597C31.9126 15.3415 31.4541 15.9489 31.0289 16.5793V16.5836H16.875C13.4614 16.587 10.1886 17.9446 7.77477 20.3584C5.36097 22.7722 4.00341 26.045 4 29.4586V89.542C4.00341 92.9556 5.36097 96.2284 7.77477 98.6422C10.1886 101.056 13.4614 102.414 16.875 102.417H76.9583C80.372 102.414 83.6448 101.056 86.0586 98.6422C88.4724 96.2284 89.8299 92.9556 89.8333 89.542V29.4586C89.8299 26.045 88.4724 22.7722 86.0586 20.3584C83.6448 17.9446 80.372 16.587 76.9583 16.5836ZM81.25 89.542C81.25 90.6802 80.7979 91.7718 79.993 92.5766C79.1882 93.3815 78.0966 93.8336 76.9583 93.8336H16.875C15.7368 93.8336 14.6452 93.3815 13.8403 92.5766C13.0355 91.7718 12.5833 90.6802 12.5833 89.542V29.4586C12.5833 28.3204 13.0355 27.2288 13.8403 26.424C14.6452 25.6191 15.7368 25.167 16.875 25.167H36.4021C36.8946 22.7415 38.2104 20.561 40.1267 18.9947C42.043 17.4285 44.4418 16.5729 46.9167 16.5729C49.3916 16.5729 51.7904 17.4285 53.7066 18.9947C55.6229 20.561 56.9388 22.7415 57.4313 25.167H76.9583C78.0966 25.167 79.1882 25.6191 79.993 26.424C80.7979 27.2288 81.25 28.3204 81.25 29.4586V89.542Z" fill="url(#paint2_linear_406_632)"/>
</g>
<defs>
<filter id="filter0_d_406_632" x="0" y="0" width="101.832" height="110.417" filterUnits="userSpaceOnUse" color-interpolation-filters="sRGB">
<feFlood flood-opacity="0" result="BackgroundImageFix"/>
<feColorMatrix in="SourceAlpha" type="matrix" values="0 0 0 0 0 0 0 0 0 0 0 0 0 0 0 0 0 0 127 0" result="hardAlpha"/>
<feOffset dx="4"/>
<feGaussianBlur stdDeviation="4"/>
<feComposite in2="hardAlpha" operator="out"/>
<feColorMatrix type="matrix" values="0 0 0 0 0.126526 0 0 0 0 0.221154 0 0 0 0 0.194868 0 0 0 0.25 0"/>
<feBlend mode="normal" in2="BackgroundImageFix" result="effect1_dropShadow_406_632"/>
<feBlend mode="normal" in="SourceGraphic" in2="effect1_dropShadow_406_632" result="shape"/>
</filter>
<linearGradient id="paint0_linear_406_632" x1="46.9167" y1="25.167" x2="46.9167" y2="33.7503" gradientUnits="userSpaceOnUse">
<stop offset="0.35" stop-color="#E9E3E6"/>
</linearGradient>
<linearGradient id="paint1_linear_406_632" x1="70.9178" y1="38.042" x2="9.41797" y2="92.7086" gradientUnits="userSpaceOnUse">
<stop offset="0.35" stop-color="#E9E3E6"/>
<stop offset="0.75" stop-color="#E9E3E6" stop-opacity="0"/>
</linearGradient>
<linearGradient id="paint2_linear_406_632" x1="89.8333" y1="11.559" x2="4" y2="98.858" gradientUnits="userSpaceOnUse">
<stop offset="0.35" stop-color="#E9E3E6"/>
<stop offset="0.75" stop-color="#E9E3E6" stop-opacity="0"/>
</linearGradient>
</defs>
</svg>
