<svg width="70" height="76" viewBox="0 0 70 76" fill="none" xmlns="http://www.w3.org/2000/svg">
<foreignObject x="-1.83984" y="-10" width="79.7891" height="79.6851"><div xmlns="http://www.w3.org/1999/xhtml" style="backdrop-filter:blur(7.5px);clip-path:url(#bgblur_0_465_131_clip_path);height:100%;width:100%"></div></foreignObject><g filter="url(#filter0_d_465_131)" data-figma-bg-blur-radius="15">
<path d="M19.3974 5.04814C18.2666 4.88161 17.1172 5.15173 16.2025 5.79892C15.2879 6.44611 14.6832 7.41722 14.5218 8.49812L14.4561 9.13485L13.184 48.0281C13.0464 49.3082 13.4797 50.5894 14.3775 51.557C15.2753 52.5246 16.5544 53.0889 17.9004 53.1112L58.5116 54.6813C59.6428 54.7272 60.7423 54.3402 61.567 53.6058C62.3917 52.8714 62.8737 51.8502 62.9062 50.768C62.9432 50.6348 62.9575 50.4966 62.9484 50.3586C61.6535 27.2819 43.3376 8.22604 19.3974 5.04814Z" fill="url(#paint0_linear_465_131)"/>
</g>
<foreignObject x="-10" y="31.2388" width="44" height="44"><div xmlns="http://www.w3.org/1999/xhtml" style="backdrop-filter:blur(7.5px);clip-path:url(#bgblur_1_465_131_clip_path);height:100%;width:100%"></div></foreignObject><g filter="url(#filter1_d_465_131)" data-figma-bg-blur-radius="15">
<circle cx="12" cy="53.2388" r="7" fill="url(#paint1_linear_465_131)"/>
<circle cx="12" cy="53.2388" r="6.8" stroke="url(#paint2_linear_465_131)" stroke-width="0.4"/>
</g>
<defs>
<filter id="filter0_d_465_131" x="-1.83984" y="-10" width="79.7891" height="79.6851" filterUnits="userSpaceOnUse" color-interpolation-filters="sRGB">
<feFlood flood-opacity="0" result="BackgroundImageFix"/>
<feColorMatrix in="SourceAlpha" type="matrix" values="0 0 0 0 0 0 0 0 0 0 0 0 0 0 0 0 0 0 127 0" result="hardAlpha"/>
<feOffset dx="-3" dy="5"/>
<feGaussianBlur stdDeviation="5"/>
<feColorMatrix type="matrix" values="0 0 0 0 0.431373 0 0 0 0 0.196078 0 0 0 0 0.870588 0 0 0 0.44 0"/>
<feBlend mode="normal" in2="BackgroundImageFix" result="effect1_dropShadow_465_131"/>
<feBlend mode="normal" in="SourceGraphic" in2="effect1_dropShadow_465_131" result="shape"/>
</filter>
<clipPath id="bgblur_0_465_131_clip_path" transform="translate(1.83984 10)"><path d="M19.3974 5.04814C18.2666 4.88161 17.1172 5.15173 16.2025 5.79892C15.2879 6.44611 14.6832 7.41722 14.5218 8.49812L14.4561 9.13485L13.184 48.0281C13.0464 49.3082 13.4797 50.5894 14.3775 51.557C15.2753 52.5246 16.5544 53.0889 17.9004 53.1112L58.5116 54.6813C59.6428 54.7272 60.7423 54.3402 61.567 53.6058C62.3917 52.8714 62.8737 51.8502 62.9062 50.768C62.9432 50.6348 62.9575 50.4966 62.9484 50.3586C61.6535 27.2819 43.3376 8.22604 19.3974 5.04814Z"/>
</clipPath><filter id="filter1_d_465_131" x="-10" y="31.2388" width="44" height="44" filterUnits="userSpaceOnUse" color-interpolation-filters="sRGB">
<feFlood flood-opacity="0" result="BackgroundImageFix"/>
<feColorMatrix in="SourceAlpha" type="matrix" values="0 0 0 0 0 0 0 0 0 0 0 0 0 0 0 0 0 0 127 0" result="hardAlpha"/>
<feOffset dx="5" dy="5"/>
<feGaussianBlur stdDeviation="5"/>
<feColorMatrix type="matrix" values="0 0 0 0 0.333333 0 0 0 0 0.203922 0 0 0 0 0.603922 0 0 0 1 0"/>
<feBlend mode="normal" in2="BackgroundImageFix" result="effect1_dropShadow_465_131"/>
<feBlend mode="normal" in="SourceGraphic" in2="effect1_dropShadow_465_131" result="shape"/>
</filter>
<clipPath id="bgblur_1_465_131_clip_path" transform="translate(10 -31.2388)"><circle cx="12" cy="53.2388" r="7"/>
</clipPath><linearGradient id="paint0_linear_465_131" x1="62.5423" y1="18.2066" x2="-25.3705" y2="5.62972" gradientUnits="userSpaceOnUse">
<stop stop-color="white" stop-opacity="0.2"/>
<stop offset="1" stop-color="white"/>
</linearGradient>
<linearGradient id="paint1_linear_465_131" x1="18.0074" y1="48.7669" x2="-5.66943" y2="47.916" gradientUnits="userSpaceOnUse">
<stop stop-color="white"/>
<stop offset="1" stop-color="white" stop-opacity="0.2"/>
</linearGradient>
<linearGradient id="paint2_linear_465_131" x1="7.22857" y1="47.8698" x2="16.1591" y2="58.9304" gradientUnits="userSpaceOnUse">
<stop stop-color="white" stop-opacity="0.25"/>
<stop offset="1" stop-color="white" stop-opacity="0"/>
</linearGradient>
</defs>
</svg>
