<svg width="34" height="32" viewBox="0 0 34 32" fill="none" xmlns="http://www.w3.org/2000/svg">
<path d="M16.6667 4.53564C22.7983 4.53564 30.27 8.56398 32.8833 14.3706C33.1267 14.9173 33.3333 15.554 33.3333 16.2023C33.3333 16.849 33.1283 17.4873 32.8833 18.034C30.2683 23.8406 22.7967 27.869 16.6667 27.869C10.5367 27.869 3.06333 23.8406 0.45 18.034C0.206667 17.4856 0 16.8506 0 16.2023C0 15.5556 0.205 14.9173 0.45 14.3706C3.065 8.56398 10.5367 4.53564 16.6667 4.53564ZM16.6667 9.53564C14.8986 9.53564 13.2029 10.238 11.9526 11.4883C10.7024 12.7385 10 14.4342 10 16.2023C10 17.9704 10.7024 19.6661 11.9526 20.9164C13.2029 22.1666 14.8986 22.869 16.6667 22.869C18.4348 22.869 20.1305 22.1666 21.3807 20.9164C22.631 19.6661 23.3333 17.9704 23.3333 16.2023C23.3333 14.4342 22.631 12.7385 21.3807 11.4883C20.1305 10.238 18.4348 9.53564 16.6667 9.53564ZM16.6667 12.869C17.5507 12.869 18.3986 13.2202 19.0237 13.8453C19.6488 14.4704 20 15.3183 20 16.2023C20 17.0864 19.6488 17.9342 19.0237 18.5593C18.3986 19.1845 17.5507 19.5356 16.6667 19.5356C15.7826 19.5356 14.9348 19.1845 14.3096 18.5593C13.6845 17.9342 13.3333 17.0864 13.3333 16.2023C13.3333 15.3183 13.6845 14.4704 14.3096 13.8453C14.9348 13.2202 15.7826 12.869 16.6667 12.869Z" fill="white"/>
<line x1="3.76777" y1="1.76788" x2="31.7856" y2="29.7857" stroke="#2A194B" stroke-width="5"/>
<line x1="3.70711" y1="1.83196" x2="31.725" y2="29.8498" stroke="white" stroke-width="2"/>
</svg>
