<svg width="101" height="101" viewBox="0 0 101 101" fill="none" xmlns="http://www.w3.org/2000/svg">
<g filter="url(#filter0_d_406_638)">
<path fill-rule="evenodd" clip-rule="evenodd" d="M22.8905 45.7779V52.8612L14.6479 66.9925C10.9763 73.2848 15.5168 81.1946 22.8055 81.1946H39.5033C46.792 81.1946 51.3325 73.2872 47.6609 66.9925L39.4183 52.8612V45.7779C40.0445 45.7779 40.6451 45.5291 41.0879 45.0863C41.5306 44.6435 41.7794 44.043 41.7794 43.4168V33.9723C41.7794 33.3461 41.5306 32.7456 41.0879 32.3028C40.6451 31.86 40.0445 31.6112 39.4183 31.6112H22.8905C22.2643 31.6112 21.6638 31.86 21.221 32.3028C20.7782 32.7456 20.5294 33.3461 20.5294 33.9723V43.4168C20.5294 44.043 20.7782 44.6435 21.221 45.0863C21.6638 45.5291 22.2643 45.7779 22.8905 45.7779ZM43.5809 69.3701L34.6961 54.1386V45.7779H27.6127V54.1362L18.7279 69.3701C16.8909 72.5198 19.16 76.4723 22.8055 76.4723H39.5033C43.1465 76.4723 45.4179 72.5198 43.5809 69.3701ZM25.2516 36.3334V41.0557H37.0572V36.3334H25.2516ZM65.3905 33.2144C70.7786 29.6255 74.835 26.1547 74.835 19.8057H79.5572C79.5572 27.8594 74.6532 32.5108 69.6688 36.0147C71.6309 37.3322 73.5812 38.7607 75.1891 40.3969C77.7202 42.9682 79.5572 46.1887 79.5572 50.5001C79.5572 54.8115 77.7202 58.0321 75.1891 60.6057C73.5812 62.2396 71.6309 63.668 69.6688 64.9855C74.6508 68.4894 79.5572 73.1408 79.5572 81.1946H74.835C74.8334 80.3603 74.7657 79.5733 74.6319 78.8334H63.0294C62.4032 78.8334 61.8026 78.5847 61.3598 78.1419C60.917 77.6991 60.6683 77.0985 60.6683 76.4723C60.6683 75.8461 60.917 75.2456 61.3598 74.8028C61.8026 74.36 62.4032 74.1112 63.0294 74.1112H72.6273C70.9226 71.7052 68.3584 69.7644 65.3905 67.7882C60.0025 71.3771 55.9461 74.8479 55.9461 81.1946H51.2239C51.2239 73.1408 56.1279 68.4894 61.1122 64.9855C59.1501 63.668 57.1998 62.2396 55.5919 60.6033C53.0608 58.0321 51.2239 54.8115 51.2239 50.5001C51.2239 46.1887 53.0608 42.9682 55.5919 40.3946C57.1998 38.7607 59.1501 37.3322 61.1122 36.0147C56.1302 32.5108 51.2239 27.8594 51.2239 19.8057H55.9461C55.9476 20.6399 56.0153 21.427 56.1491 22.1668H67.7516C68.3778 22.1668 68.9784 22.4155 69.4212 22.8583C69.864 23.3011 70.1127 23.9017 70.1127 24.5279C70.1127 25.1541 69.864 25.7546 69.4212 26.1974C68.9784 26.6402 68.3778 26.889 67.7516 26.889H58.1537C59.8584 29.295 62.4226 31.2358 65.3905 33.2121M65.3905 38.8504C63.02 40.3922 60.9138 41.8041 59.2516 43.4144H71.5294C69.8695 41.8041 67.7611 40.3922 65.3905 38.8504ZM55.9461 50.5001C55.9476 49.6564 56.0484 48.8694 56.2483 48.139H74.5327C74.7327 48.8694 74.8334 49.6564 74.835 50.5001C74.8334 51.3438 74.7327 52.1309 74.5327 52.8612H56.2483C56.0431 52.0911 55.9415 51.2971 55.9461 50.5001ZM59.2516 57.5834C60.9138 59.1937 63.02 60.6057 65.3905 62.1475C67.7611 60.6057 69.8695 59.1937 71.5294 57.5834H59.2516Z" fill="url(#paint0_linear_406_638)"/>
<path fill-rule="evenodd" clip-rule="evenodd" d="M11.0833 8C9.20472 8 7.40304 8.74628 6.07466 10.0747C4.74628 11.403 4 13.2047 4 15.0833V85.9167C4 87.7953 4.74628 89.597 6.07466 90.9253C7.40304 92.2537 9.20472 93 11.0833 93H81.9167C83.7953 93 85.597 92.2537 86.9253 90.9253C88.2537 89.597 89 87.7953 89 85.9167V15.0833C89 13.2047 88.2537 11.403 86.9253 10.0747C85.597 8.74628 83.7953 8 81.9167 8H11.0833ZM84.2778 15.0833C84.2778 14.4571 84.029 13.8566 83.5862 13.4138C83.1434 12.971 82.5429 12.7222 81.9167 12.7222H11.0833C10.4571 12.7222 9.85657 12.971 9.41378 13.4138C8.97098 13.8566 8.72222 14.4571 8.72222 15.0833V85.9167C8.72222 86.5429 8.97098 87.1434 9.41378 87.5862C9.85657 88.029 10.4571 88.2778 11.0833 88.2778H81.9167C82.5429 88.2778 83.1434 88.029 83.5862 87.5862C84.029 87.1434 84.2778 86.5429 84.2778 85.9167V15.0833Z" fill="url(#paint1_linear_406_638)"/>
</g>
<defs>
<filter id="filter0_d_406_638" x="0" y="0" width="101" height="101" filterUnits="userSpaceOnUse" color-interpolation-filters="sRGB">
<feFlood flood-opacity="0" result="BackgroundImageFix"/>
<feColorMatrix in="SourceAlpha" type="matrix" values="0 0 0 0 0 0 0 0 0 0 0 0 0 0 0 0 0 0 127 0" result="hardAlpha"/>
<feOffset dx="4"/>
<feGaussianBlur stdDeviation="4"/>
<feComposite in2="hardAlpha" operator="out"/>
<feColorMatrix type="matrix" values="0 0 0 0 0.12549 0 0 0 0 0.219608 0 0 0 0 0.196078 0 0 0 0.25 0"/>
<feBlend mode="normal" in2="BackgroundImageFix" result="effect1_dropShadow_406_638"/>
<feBlend mode="normal" in="SourceGraphic" in2="effect1_dropShadow_406_638" result="shape"/>
</filter>
<linearGradient id="paint0_linear_406_638" x1="79.4005" y1="19.8057" x2="30.4518" y2="81.9607" gradientUnits="userSpaceOnUse">
<stop offset="0.0113649" stop-color="white"/>
<stop offset="1" stop-color="#E9E3E6" stop-opacity="0"/>
</linearGradient>
<linearGradient id="paint1_linear_406_638" x1="88.7988" y1="8.00001" x2="20" y2="89" gradientUnits="userSpaceOnUse">
<stop offset="0.0113649" stop-color="white"/>
<stop offset="1" stop-color="#E9E3E6" stop-opacity="0"/>
</linearGradient>
</defs>
</svg>
