<svg width="76" height="74" viewBox="0 0 76 74" fill="none" xmlns="http://www.w3.org/2000/svg">
<path d="M66.2917 35H60.9167V21C60.9167 17.15 57.6917 14 53.75 14H39.4167V8.75C39.4167 3.92 35.4033 0 30.4583 0C25.5133 0 21.5 3.92 21.5 8.75V14H7.16667C3.225 14 0.0358333 17.15 0.0358333 21V34.3H5.375C10.7142 34.3 15.05 38.535 15.05 43.75C15.05 48.965 10.7142 53.2 5.375 53.2H0V66.5C0 70.35 3.225 73.5 7.16667 73.5H20.7833V68.25C20.7833 63.035 25.1192 58.8 30.4583 58.8C35.7975 58.8 40.1333 63.035 40.1333 68.25V73.5H53.75C57.6917 73.5 60.9167 70.35 60.9167 66.5V52.5H66.2917C71.2367 52.5 75.25 48.58 75.25 43.75C75.25 38.92 71.2367 35 66.2917 35Z" fill="url(#paint0_linear_461_114)"/>
<defs>
<linearGradient id="paint0_linear_461_114" x1="37.625" y1="6.31691e-09" x2="37.832" y2="73.5" gradientUnits="userSpaceOnUse">
<stop stop-color="white"/>
<stop offset="1" stop-opacity="0"/>
</linearGradient>
</defs>
</svg>
