<svg xmlns="http://www.w3.org/2000/svg" style="display:none">
  <symbol id="icon-user" viewBox="0 0 19 20">
    <path d="M9.5 13C11.0165 13 13.326 13.4045 15.2432 14.2119C16.2006 14.6152 17.0298 15.1062 17.6123 15.6719C18.1906 16.2336 18.5 16.8411 18.5 17.5V18.291L18.0361 19.0234L17.3584 19.5H1.6416L0.962891 19.0234L0.5 18.291V17.5C0.5 16.8411 0.809393 16.2336 1.3877 15.6719C1.97016 15.1062 2.79944 14.6152 3.75684 14.2119C5.67404 13.4045 7.98346 13 9.5 13ZM9.5 0.5C11.8244 0.5 13.75 2.48917 13.75 5C13.75 7.505 11.824 9.5 9.5 9.5C7.17602 9.5 5.25 7.505 5.25 5C5.25 2.48917 7.17562 0.5 9.5 0.5Z" stroke="currentColor" fill="none"/>
  </symbol>
</svg>

